HIERARCHY
ROOT Hips
{
  OFFSET -1.06218 88.2488 0.621543
  CHANNELS 6 Xposition Yposition Zposition Zrotation Xrotation Yrotation
  JOINT Spine
  {
    OFFSET 0 10.1816 0.1315
    CHANNELS 6 Xposition Yposition Zposition Zrotation Xrotation Yrotation
    JOINT Spine1
    {
      OFFSET 0 10.0835 -1.0008
      CHANNELS 6 Xposition Yposition Zposition Zrotation Xrotation Yrotation
      JOINT Spine2
      {
        OFFSET 0 9.1 -1.3734
        CHANNELS 6 Xposition Yposition Zposition Zrotation Xrotation Yrotation
        JOINT Neck
        {
          OFFSET 0 16.6717 -2.5162
          CHANNELS 6 Xposition Yposition Zposition Zrotation Xrotation Yrotation
          JOINT Head
          {
            OFFSET 0 9.6179 1.685
            CHANNELS 6 Xposition Yposition Zposition Zrotation Xrotation Yrotation
            JOINT HeadTop_End
            {
              OFFSET 0 17.8152 2.585
              CHANNELS 6 Xposition Yposition Zposition Zrotation Xrotation Yrotation
              End Site
              {
                OFFSET 0 0 0
              }
            }
            JOINT LeftEye
            {
              OFFSET 3.0676 6.4095 9.2836
              CHANNELS 6 Xposition Yposition Zposition Zrotation Xrotation Yrotation
              End Site
              {
                OFFSET 0 0 0
              }
            }
            JOINT RightEye
            {
              OFFSET -3.0676 6.4095 9.2835
              CHANNELS 6 Xposition Yposition Zposition Zrotation Xrotation Yrotation
              End Site
              {
                OFFSET 0 0 0
              }
            }
          }
        }
        JOINT LeftShoulder
        {
          OFFSET 4.5704 10.946 -2.628
          CHANNELS 6 Xposition Yposition Zposition Zrotation Xrotation Yrotation
          JOINT LeftArm
          {
            OFFSET 10.5924 -0.5246 -2.2321
            CHANNELS 6 Xposition Yposition Zposition Zrotation Xrotation Yrotation
            JOINT LeftForeArm
            {
              OFFSET 27.8415 -0.0001 0
              CHANNELS 6 Xposition Yposition Zposition Zrotation Xrotation Yrotation
              JOINT LeftHand
              {
                OFFSET 28.3288 0 0
                CHANNELS 6 Xposition Yposition Zposition Zrotation Xrotation Yrotation
                JOINT LeftHandThumb1
                {
                  OFFSET 2.4661 -1.575 2.6824
                  CHANNELS 6 Xposition Yposition Zposition Zrotation Xrotation Yrotation
                  JOINT LeftHandThumb2
                  {
                    OFFSET 3.2298 -1.8647 1.8647
                    CHANNELS 6 Xposition Yposition Zposition Zrotation Xrotation Yrotation
                    JOINT LeftHandThumb3
                    {
                      OFFSET 2.6526 -1.5315 1.5315
                      CHANNELS 6 Xposition Yposition Zposition Zrotation Xrotation Yrotation
                      End Site
                      {
                        OFFSET 1.9546 -1.1285 1.1285
                      }
                    }
                  }
                }
                JOINT LeftHandIndex1
                {
                  OFFSET 9.1093 -0.5171 2.2601
                  CHANNELS 6 Xposition Yposition Zposition Zrotation Xrotation Yrotation
                  JOINT LeftHandIndex2
                  {
                    OFFSET 3.6764 0 0
                    CHANNELS 6 Xposition Yposition Zposition Zrotation Xrotation Yrotation
                    JOINT LeftHandIndex3
                    {
                      OFFSET 2.8831 0 0
                      CHANNELS 6 Xposition Yposition Zposition Zrotation Xrotation Yrotation
                      End Site
                      {
                        OFFSET 2.3927 0 0
                      }
                    }
                  }
                }
                JOINT LeftHandMiddle1
                {
                  OFFSET 9.5334 0 0
                  CHANNELS 6 Xposition Yposition Zposition Zrotation Xrotation Yrotation
                  JOINT LeftHandMiddle2
                  {
                    OFFSET 3.6982 0 0
                    CHANNELS 6 Xposition Yposition Zposition Zrotation Xrotation Yrotation
                    JOINT LeftHandMiddle3
                    {
                      OFFSET 2.9509 0 0
                      CHANNELS 6 Xposition Yposition Zposition Zrotation Xrotation Yrotation
                      End Site
                      {
                        OFFSET 2.8339 0 0
                      }
                    }
                  }
                }
                JOINT LeftHandRing1
                {
                  OFFSET 9.1045 -0.0439 -1.8651
                  CHANNELS 6 Xposition Yposition Zposition Zrotation Xrotation Yrotation
                  JOINT LeftHandRing2
                  {
                    OFFSET 3.154 0 0
                    CHANNELS 6 Xposition Yposition Zposition Zrotation Xrotation Yrotation
                    JOINT LeftHandRing3
                    {
                      OFFSET 2.9377 0 0
                      CHANNELS 6 Xposition Yposition Zposition Zrotation Xrotation Yrotation
                      End Site
                      {
                        OFFSET 2.6475 0 0
                      }
                    }
                  }
                }
                JOINT LeftHandPinky1
                {
                  OFFSET 8.0778 -0.4887 -3.8061
                  CHANNELS 6 Xposition Yposition Zposition Zrotation Xrotation Yrotation
                  JOINT LeftHandPinky2
                  {
                    OFFSET 3.6 0 0
                    CHANNELS 6 Xposition Yposition Zposition Zrotation Xrotation Yrotation
                    JOINT LeftHandPinky3
                    {
                      OFFSET 2.1142 0 0
                      CHANNELS 6 Xposition Yposition Zposition Zrotation Xrotation Yrotation
                      End Site
                      {
                        OFFSET 1.9757 0 0
                      }
                    }
                  }
                }
              }
            }
          }
        }
        JOINT RightShoulder
        {
          OFFSET -4.57 10.9462 -2.628
          CHANNELS 6 Xposition Yposition Zposition Zrotation Xrotation Yrotation
          JOINT RightArm
          {
            OFFSET -10.5928 -0.5248 -2.2321
            CHANNELS 6 Xposition Yposition Zposition Zrotation Xrotation Yrotation
            JOINT RightForeArm
            {
              OFFSET -27.8415 0 0
              CHANNELS 6 Xposition Yposition Zposition Zrotation Xrotation Yrotation
              JOINT RightHand
              {
                OFFSET -28.3288 0 0.0001
                CHANNELS 6 Xposition Yposition Zposition Zrotation Xrotation Yrotation
                JOINT RightHandPinky1
                {
                  OFFSET -8.0767 -0.4885 -3.806
                  CHANNELS 6 Xposition Yposition Zposition Zrotation Xrotation Yrotation
                  JOINT RightHandPinky2
                  {
                    OFFSET -3.6 0 0.0001
                    CHANNELS 6 Xposition Yposition Zposition Zrotation Xrotation Yrotation
                    JOINT RightHandPinky3
                    {
                      OFFSET -2.1142 0 0
                      CHANNELS 6 Xposition Yposition Zposition Zrotation Xrotation Yrotation
                      End Site
                      {
                        OFFSET -1.9757 0 0
                      }
                    }
                  }
                }
                JOINT RightHandRing1
                {
                  OFFSET -9.1036 -0.0439 -1.8651
                  CHANNELS 6 Xposition Yposition Zposition Zrotation Xrotation Yrotation
                  JOINT RightHandRing2
                  {
                    OFFSET -3.154 0 0
                    CHANNELS 6 Xposition Yposition Zposition Zrotation Xrotation Yrotation
                    JOINT RightHandRing3
                    {
                      OFFSET -2.9377 0 0
                      CHANNELS 6 Xposition Yposition Zposition Zrotation Xrotation Yrotation
                      End Site
                      {
                        OFFSET -2.6475 0 0
                      }
                    }
                  }
                }
                JOINT RightHandMiddle1
                {
                  OFFSET -9.5325 0 0
                  CHANNELS 6 Xposition Yposition Zposition Zrotation Xrotation Yrotation
                  JOINT RightHandMiddle2
                  {
                    OFFSET -3.6982 0 0
                    CHANNELS 6 Xposition Yposition Zposition Zrotation Xrotation Yrotation
                    JOINT RightHandMiddle3
                    {
                      OFFSET -2.9509 0 0
                      CHANNELS 6 Xposition Yposition Zposition Zrotation Xrotation Yrotation
                      End Site
                      {
                        OFFSET -2.8339 0 0.0001
                      }
                    }
                  }
                }
                JOINT RightHandIndex1
                {
                  OFFSET -9.1083 -0.5168 2.2601
                  CHANNELS 6 Xposition Yposition Zposition Zrotation Xrotation Yrotation
                  JOINT RightHandIndex2
                  {
                    OFFSET -3.6764 0 0
                    CHANNELS 6 Xposition Yposition Zposition Zrotation Xrotation Yrotation
                    JOINT RightHandIndex3
                    {
                      OFFSET -2.8831 0 0
                      CHANNELS 6 Xposition Yposition Zposition Zrotation Xrotation Yrotation
                      End Site
                      {
                        OFFSET -2.3927 0 0
                      }
                    }
                  }
                }
                JOINT RightHandThumb1
                {
                  OFFSET -2.4648 -1.5727 2.6826
                  CHANNELS 6 Xposition Yposition Zposition Zrotation Xrotation Yrotation
                  JOINT RightHandThumb2
                  {
                    OFFSET -3.2298 -1.8647 1.8647
                    CHANNELS 6 Xposition Yposition Zposition Zrotation Xrotation Yrotation
                    JOINT RightHandThumb3
                    {
                      OFFSET -2.6526 -1.5314 1.5314
                      CHANNELS 6 Xposition Yposition Zposition Zrotation Xrotation Yrotation
                      End Site
                      {
                        OFFSET -1.9546 -1.1285 1.1285
                      }
                    }
                  }
                }
              }
            }
          }
        }
      }
    }
  }
  JOINT LeftUpLeg
  {
    OFFSET 8.2078 -6.7517 -1.5996
    CHANNELS 6 Xposition Yposition Zposition Zrotation Xrotation Yrotation
    JOINT LeftLeg
    {
      OFFSET 0 -44.3705 0.2846
      CHANNELS 6 Xposition Yposition Zposition Zrotation Xrotation Yrotation
      JOINT LeftFoot
      {
        OFFSET 0 -44.4279 -2.9822
        CHANNELS 6 Xposition Yposition Zposition Zrotation Xrotation Yrotation
        JOINT LeftToeBase
        {
          OFFSET 0 -8.7287 10.7106
          CHANNELS 6 Xposition Yposition Zposition Zrotation Xrotation Yrotation
          End Site
          {
            OFFSET 0 -0.0007 9.2781
          }
        }
      }
    }
  }
  JOINT RightUpLeg
  {
    OFFSET -8.2078 -6.7517 -1.5996
    CHANNELS 6 Xposition Yposition Zposition Zrotation Xrotation Yrotation
    JOINT RightLeg
    {
      OFFSET 0 -44.3705 0.2862
      CHANNELS 6 Xposition Yposition Zposition Zrotation Xrotation Yrotation
      JOINT RightFoot
      {
        OFFSET 0 -44.4277 -2.9838
        CHANNELS 6 Xposition Yposition Zposition Zrotation Xrotation Yrotation
        JOINT RightToeBase
        {
          OFFSET 0 -8.7287 10.7106
          CHANNELS 6 Xposition Yposition Zposition Zrotation Xrotation Yrotation
          End Site
          {
            OFFSET 0 -0.0007 9.2781
          }
        }
      }
    }
  }
}
MOTION
Frames:	4
Frame Time:	0.0333333
11.7693 84.4487 50.4348 -9.9978 -3.02792 -46.2259 0 10.1816 0.1315 -4.90185 19.5665 6.97227 0 10.0835 -1.0008 0.977597 0.847399 1.00847 -3.55271e-015 9.1 -1.3734 0.944475 0.823711 1.05528 7.10543e-015 16.6717 -2.5162 6.96751 -2.21965 13.848 0 9.6179 1.685 -6.05341 -3.40768 24.9796 0 17.8152 2.585 3.72721e-017 -1.59028e-015 -9.93923e-017 3.0676 6.4095 9.2836 3.72721e-017 -1.59028e-015 -9.93923e-017 -3.0676 6.4095 9.2835 3.72721e-017 -1.59028e-015 -9.93923e-017 4.5704 10.946 -2.628 -7.01575 0.412339 2.4007 10.5924 -0.5246 -2.2321 -67.5903 -36.5415 -50.6078 27.8415 -0.0001 0 -0.000197594 6.81501e-006 -102.904 28.3288 0 0 -18.9548 1.54412 -15.621 2.4661 -1.575 2.6824 -6.63197 -4.74549 -12.3323 3.2298 -1.8647 1.8647 2.55315 12.2142 42.1049 2.6526 -1.5315 1.5315 27.259 3.36614 7.40136 9.1093 -0.5171 2.2601 -45.7589 -2.23587 2.52046 3.6764 -2.84217e-014 0 -87.4947 -5.59999 5.84994 2.8831 0 0 -50.6978 -2.14594 4.52795 9.5334 0 0 -39.6749 -2.80327 2.6451 3.6982 0 -1.42109e-014 -95.2415 -6.38928 5.83098 2.9509 0 -7.10543e-015 -50.9569 -2.16649 4.5447 9.1045 -0.0439 -1.8651 -39.6804 -2.80955 4.10363 3.154 2.84217e-014 0 -112.738 -8.10918 5.39906 2.9377 0 0 -62.7352 -3.17331 5.20309 8.0778 -0.4887 -3.8061 -45.2613 -9.0738 3.70032 3.6 0 -7.10543e-015 -84.4662 -5.2916 5.82817 2.1142 -3.55271e-015 1.42109e-014 -118.594 -8.6439 5.13933 -4.57 10.9462 -2.628 -4.13391 0.848974 11.5783 -10.5928 -0.5248 -2.2321 53.3028 14.342 66.9973 -27.8415 0 0 8.36737e-007 -7.09731e-006 103.448 -28.3288 -1.42109e-014 0.0001 -13.8208 -18.9678 14.2137 -8.0767 -0.4885 -3.806 44.7284 -8.61532 -2.74384 -3.6 0 0.0001 84.6743 -4.21327 -4.62547 -2.1142 -1.42109e-014 0 118.833 -6.87902 -4.06873 -9.1036 -0.0439 -1.8651 39.0499 -2.43996 -3.23941 -3.154 1.42109e-014 -1.42109e-014 112.98 -6.45457 -4.27631 -2.9377 -1.42109e-014 7.10543e-015 62.8855 -2.52845 -4.1342 -9.5325 -7.10543e-015 0 39.0138 -2.43242 -1.78259 -3.6982 0 1.42109e-014 95.4704 -5.08797 -4.62451 -2.9509 0 0 51.0734 -1.72639 -3.6146 -9.1083 -0.5168 2.2601 45.088 -1.76924 -1.57656 -3.6764 0 0 87.7094 -4.46023 -4.64199 -2.8831 -1.42109e-014 -7.10543e-015 50.8136 -1.71002 -3.59929 -2.4648 -1.5727 2.6826 7.22015 -5.53918 14.5729 -3.2298 -1.8647 1.8647 -2.83542 12.5798 -43.9355 -2.6526 -1.5314 1.5314 -28.1821 6.87895 -12.8222 8.2078 -6.7517 -1.5996 28.4324 -34.8373 22.3797 1.42109e-014 -44.3705 0.2846 14.7386 70.3762 -17.4198 7.10543e-015 -44.4279 -2.9822 -10.4234 -20.8272 -7.16998 0 -8.7287 10.7106 1.73966e-006 -1.85855 1.04947e-006 -8.2078 -6.7517 -1.5996 -36.4707 -17.0974 -21.5015 3.55271e-015 -44.3705 0.2862 -17.8364 55.93 20.3833 0 -44.4277 -2.9838 3.46625 10.0405 -1.68341 0 -8.7287 10.7106 7.21768 -5.60013 0.151768 
11.2439 83.4465 48.5191 -9.73574 -4.24015 -47.8096 7.10543e-015 10.1816 0.1315 -4.87414 19.3364 6.72867 0 10.0835 -1.0008 1.14551 0.817962 0.733309 -3.55271e-015 9.1 -1.3734 1.12773 0.805141 0.788522 0 16.6717 -2.5162 7.00824 -2.27154 14.4817 0 9.6179 1.685 -6.49338 -2.20103 26.3247 0 17.8152 2.585 -2.60905e-016 7.95139e-016 -1.98785e-016 3.0676 6.4095 9.2836 -2.60905e-016 7.95139e-016 -1.98785e-016 -3.0676 6.4095 9.2835 -2.60905e-016 7.95139e-016 -1.98785e-016 4.5704 10.946 -2.628 -7.23952 0.440056 2.61699 10.5924 -0.5246 -2.2321 -67.6906 -37.3935 -47.4129 27.8415 -0.0001 1.42109e-014 -0.000258467 7.4848e-006 -104.197 28.3288 0 2.13163e-014 -18.9128 0.425864 -15.2162 2.4661 -1.575 2.6824 -6.63197 -4.74549 -12.3323 3.2298 -1.8647 1.8647 2.55315 12.2142 42.1049 2.6526 -1.5315 1.5315 27.259 3.36614 7.40136 9.1093 -0.5171 2.2601 -45.7589 -2.23587 2.52046 3.6764 0 7.10543e-015 -87.4947 -5.59999 5.84994 2.8831 -3.55271e-015 0 -50.6978 -2.14594 4.52795 9.5334 2.84217e-014 -7.10543e-015 -39.6749 -2.80327 2.6451 3.6982 0 1.42109e-014 -95.2415 -6.38928 5.83098 2.9509 -1.77636e-015 2.13163e-014 -50.9569 -2.16649 4.5447 9.1045 -0.0439 -1.8651 -39.6804 -2.80955 4.10363 3.154 0 -2.13163e-014 -112.738 -8.10918 5.39906 2.9377 0 0 -62.7352 -3.17331 5.20309 8.0778 -0.4887 -3.8061 -45.2613 -9.0738 3.70032 3.6 0 -7.10543e-015 -84.4662 -5.2916 5.82817 2.1142 0 0 -118.594 -8.6439 5.13933 -4.57 10.9462 -2.628 -4.39725 0.685741 11.4138 -10.5928 -0.5248 -2.2321 53.9551 16.7288 67.0295 -27.8415 0 1.42109e-014 3.0932e-005 -3.53201e-006 103.384 -28.3288 0 0.0001 -12.4461 -18.2908 15.2515 -8.0767 -0.4885 -3.806 44.7284 -8.61532 -2.74384 -3.6 0 0.0001 84.6743 -4.21327 -4.62547 -2.1142 -1.42109e-014 0 118.833 -6.87902 -4.06873 -9.1036 -0.0439 -1.8651 39.0499 -2.43996 -3.23941 -3.154 0 1.42109e-014 112.98 -6.45457 -4.27631 -2.9377 0 1.42109e-014 62.8855 -2.52845 -4.1342 -9.5325 0 -7.10543e-015 39.0138 -2.43242 -1.78259 -3.6982 1.42109e-014 -7.10543e-015 95.4704 -5.08797 -4.62451 -2.9509 1.42109e-014 7.10543e-015 51.0734 -1.72639 -3.6146 -9.1083 -0.5168 2.2601 45.088 -1.76924 -1.57656 -3.6764 2.84217e-014 7.10543e-015 87.7094 -4.46023 -4.64199 -2.8831 1.42109e-014 7.10543e-015 50.8136 -1.71002 -3.59929 -2.4648 -1.5727 2.6826 7.22015 -5.53918 14.5729 -3.2298 -1.8647 1.8647 -2.83542 12.5798 -43.9355 -2.6526 -1.5314 1.5314 -28.1821 6.87895 -12.8222 8.2078 -6.7517 -1.5996 29.1152 -34.3065 23.0856 7.10543e-015 -44.3705 0.2846 14.8657 70.619 -17.861 0 -44.4279 -2.9822 -11.3978 -21.5943 -7.14592 0 -8.7287 10.7106 -9.25406e-007 -0.537504 -4.75231e-006 -8.2078 -6.7517 -1.5996 -38.0355 -16.3438 -20.3945 7.10543e-015 -44.3705 0.2862 -17.8851 56.1394 20.3603 0 -44.4277 -2.9838 3.55965 6.19624 -1.1267 -1.77636e-015 -8.7287 10.7106 7.14628 -5.50994 0.144658 
10.3392 82.5337 45.9921 -9.16038 -5.56224 -48.7887 0 10.1816 0.1315 -5.20324 18.9169 6.67881 0 10.0835 -1.0008 1.06619 0.854567 0.668059 0 9.1 -1.3734 1.05341 0.845242 0.720975 0 16.6717 -2.5162 7.04935 -2.34844 14.7917 0 9.6179 1.685 -6.44969 -1.26603 26.8376 0 17.8152 2.585 1.2424e-016 1.59028e-015 1.98785e-016 3.0676 6.4095 9.2836 1.2424e-016 1.59028e-015 1.98785e-016 -3.0676 6.4095 9.2835 1.2424e-016 1.59028e-015 1.98785e-016 4.5704 10.946 -2.628 -7.5151 0.448699 2.92278 10.5924 -0.5246 -2.2321 -67.3482 -37.4496 -44.7003 27.8415 -0.0001 0 -0.000199439 -8.02865e-006 -105.253 28.3288 -7.10543e-015 -7.10543e-015 -18.4825 -0.75332 -14.3372 2.4661 -1.575 2.6824 -6.63197 -4.74549 -12.3323 3.2298 -1.8647 1.8647 2.55315 12.2142 42.1049 2.6526 -1.5315 1.5315 27.259 3.36614 7.40136 9.1093 -0.5171 2.2601 -45.7589 -2.23587 2.52046 3.6764 0 0 -87.4947 -5.59999 5.84994 2.8831 -3.55271e-015 0 -50.6978 -2.14594 4.52795 9.5334 1.42109e-014 7.10543e-015 -39.6749 -2.80327 2.6451 3.6982 0 7.10543e-015 -95.2415 -6.38928 5.83098 2.9509 3.55271e-015 -7.10543e-015 -50.9569 -2.16649 4.5447 9.1045 -0.0439 -1.8651 -39.6804 -2.80955 4.10363 3.154 2.84217e-014 1.42109e-014 -112.738 -8.10918 5.39906 2.9377 -3.55271e-015 0 -62.7352 -3.17331 5.20309 8.0778 -0.4887 -3.8061 -45.2613 -9.0738 3.70032 3.6 0 7.10543e-015 -84.4662 -5.2916 5.82817 2.1142 0 7.10543e-015 -118.594 -8.6439 5.13933 -4.57 10.9462 -2.628 -4.53 0.626806 11.3945 -10.5928 -0.5248 -2.2321 55.2782 18.4579 65.937 -27.8415 -1.42109e-014 0 7.49739e-005 1.09136e-005 103.793 -28.3288 0 0.0001 -11.6104 -17.5636 15.2856 -8.0767 -0.4885 -3.806 44.7284 -8.61532 -2.74384 -3.6 0 0.0001 84.6743 -4.21327 -4.62547 -2.1142 0 0 118.833 -6.87902 -4.06873 -9.1036 -0.0439 -1.8651 39.0499 -2.43996 -3.23941 -3.154 0 -7.10543e-015 112.98 -6.45457 -4.27631 -2.9377 0 7.10543e-015 62.8855 -2.52845 -4.1342 -9.5325 -7.10543e-015 -1.42109e-014 39.0138 -2.43242 -1.78259 -3.6982 -1.42109e-014 -7.10543e-015 95.4704 -5.08797 -4.62451 -2.9509 0 7.10543e-015 51.0734 -1.72639 -3.6146 -9.1083 -0.5168 2.2601 45.088 -1.76924 -1.57656 -3.6764 1.42109e-014 7.10543e-015 87.7094 -4.46023 -4.64199 -2.8831 1.42109e-014 0 50.8136 -1.71002 -3.59929 -2.4648 -1.5727 2.6826 7.22015 -5.53918 14.5729 -3.2298 -1.8647 1.8647 -2.83542 12.5798 -43.9355 -2.6526 -1.5314 1.5314 -28.1821 6.87895 -12.8222 8.2078 -6.7517 -1.5996 29.9685 -34.1377 23.8888 7.10543e-015 -44.3705 0.2846 15.0468 70.3852 -18.8413 -7.10543e-015 -44.4279 -2.9822 -12.7747 -20.4614 -7.06728 0 -8.7287 10.7106 -3.21782e-006 -0.444925 1.94158e-006 -8.2078 -6.7517 -1.5996 -39.0459 -15.6635 -19.2832 3.55271e-015 -44.3705 0.2862 -18.2025 56.8491 20.4211 1.77636e-015 -44.4277 -2.9838 5.10703 2.23989 -0.575798 3.55271e-015 -8.7287 10.7106 8.5585 -8.6404 0.511194 
9.12032 81.9592 42.8564 -8.32552 -6.60154 -49.2373 0 10.1816 0.1315 -5.41601 18.0729 6.85805 -3.55271e-015 10.0835 -1.0008 0.833612 1.01468 0.713577 0 9.1 -1.3734 0.82249 1.00594 0.758585 0 16.6717 -2.5162 6.82737 -2.38102 14.8594 0 9.6179 1.685 -6.02283 -0.667754 26.6062 -3.55271e-015 17.8152 2.585 -7.95139e-016 1.59028e-015 -0 3.0676 6.4095 9.2836 -7.95139e-016 1.59028e-015 -0 -3.0676 6.4095 9.2835 -7.95139e-016 1.59028e-015 -0 4.5704 10.946 -2.628 -7.83942 0.44617 3.2713 10.5924 -0.5246 -2.2321 -66.7944 -37.1129 -42.2741 27.8415 -0.0001 0 -0.00018372 -4.28673e-006 -106.316 28.3288 7.10543e-015 0 -17.7078 -1.96992 -13.1234 2.4661 -1.575 2.6824 -6.63197 -4.74549 -12.3323 3.2298 -1.8647 1.8647 2.55315 12.2142 42.1049 2.6526 -1.5315 1.5315 27.259 3.36614 7.40136 9.1093 -0.5171 2.2601 -45.7589 -2.23587 2.52046 3.6764 0 1.42109e-014 -87.4947 -5.59999 5.84994 2.8831 -3.55271e-015 -7.10543e-015 -50.6978 -2.14594 4.52795 9.5334 1.42109e-014 -7.10543e-015 -39.6749 -2.80327 2.6451 3.6982 0 -7.10543e-015 -95.2415 -6.38928 5.83098 2.9509 0 0 -50.9569 -2.16649 4.5447 9.1045 -0.0439 -1.8651 -39.6804 -2.80955 4.10363 3.154 0 -7.10543e-015 -112.738 -8.10918 5.39906 2.9377 1.06581e-014 1.42109e-014 -62.7352 -3.17331 5.20309 8.0778 -0.4887 -3.8061 -45.2613 -9.0738 3.70032 3.6 0 1.42109e-014 -84.4662 -5.2916 5.82817 2.1142 3.55271e-015 7.10543e-015 -118.594 -8.6439 5.13933 -4.57 10.9462 -2.628 -4.67222 0.561432 11.5602 -10.5928 -0.5248 -2.2321 56.9203 19.5786 64.4759 -27.8415 -7.10543e-015 0 -3.09886e-005 3.76195e-006 104.273 -28.3288 0 0.0001 -10.8047 -16.6942 15.0105 -8.0767 -0.4885 -3.806 44.7284 -8.61532 -2.74384 -3.6 1.42109e-014 0.0001 84.6743 -4.21327 -4.62547 -2.1142 0 7.10543e-015 118.833 -6.87902 -4.06873 -9.1036 -0.0439 -1.8651 39.0499 -2.43996 -3.23941 -3.154 0 7.10543e-015 112.98 -6.45457 -4.27631 -2.9377 7.10543e-015 7.10543e-015 62.8855 -2.52845 -4.1342 -9.5325 -7.10543e-015 -7.10543e-015 39.0138 -2.43242 -1.78259 -3.6982 2.84217e-014 0 95.4704 -5.08797 -4.62451 -2.9509 1.42109e-014 7.10543e-015 51.0734 -1.72639 -3.6146 -9.1083 -0.5168 2.2601 45.088 -1.76924 -1.57656 -3.6764 0 0 87.7094 -4.46023 -4.64199 -2.8831 -1.42109e-014 -7.10543e-015 50.8136 -1.71002 -3.59929 -2.4648 -1.5727 2.6826 7.22015 -5.53918 14.5729 -3.2298 -1.8647 1.8647 -2.83542 12.5798 -43.9355 -2.6526 -1.5314 1.5314 -28.1821 6.87895 -12.8222 8.2078 -6.7517 -1.5996 31.0106 -34.0344 24.5647 0 -44.3705 0.2846 14.3186 68.8203 -18.8562 7.10543e-015 -44.4279 -2.9822 -14.5333 -18.1392 -6.84808 -1.42109e-014 -8.7287 10.7106 4.63888e-006 -0.481837 1.74655e-006 -8.2078 -6.7517 -1.5996 -38.5883 -14.7925 -18.548 0 -44.3705 0.2862 -18.3767 56.8843 17.351 3.55271e-015 -44.4277 -2.9838 9.16899 -3.29059 0.126098 1.77636e-015 -8.7287 10.7106 9.12556 -12.0374 1.04547 
